<svg width="16" height="16" viewBox="0 0 16 16" fill="none" xmlns="http://www.w3.org/2000/svg">
<g clip-path="url(#clip0_722_141)">
<circle cx="8" cy="8" r="8" fill="#09192F"/>
<path d="M6 11H5.5H5H4.5H4H3.5H3V10.5V10H3.5H4H4.5H5H5.5H6H6.5V10.5V11H6ZM6.5 10V9.5V9V8.5V8H7H7.5V8.5V9V9.5V10H7H6.5ZM6.5 8H6H5.5H5H4.5H4V7.5V7H4.5H5H5.5H6H6.5V7.5V8ZM4 7H3.5H3V6.5V6H3.5H4V6.5V7ZM7 6H6.5H6H5.5H5H4.5H4V5.5V5H4.5H5H5.5H6H6.5H7H7.5V5.5V6H7ZM12.8 11H12.3V10.5V10V9.5H12.8H13.3V10V10.5V11H12.8ZM9.3 11H8.8V10.5V10V9.5V9V8.5V8V7.5V7V6.5V6V5.5V5H9.3H9.8V5.5V6V6.5V7V7.5H10.3H10.8H11.3V8V8.5H11.8H12.3V9V9.5H11.8H11.3V9V8.5H10.8H10.3H9.8V9V9.5V10V10.5V11H9.3ZM11.3 7.5V7V6.5H11.8H12.3V7V7.5H11.8H11.3ZM12.3 6.5V6V5.5H12.8H13.3V6V6.5H12.8H12.3Z" fill="#8BECE9"/>
</g>
<defs>
<clipPath id="clip0_722_141">
<rect width="16" height="16" fill="white"/>
</clipPath>
</defs>
</svg>
